<svg xmlns="http://www.w3.org/2000/svg" xmlns:xlink="http://www.w3.org/1999/xlink" width="16" height="16"><defs><linearGradient id="a"><stop offset="0" stop-color="#34714d"/><stop offset=".389" stop-color="#376a8b"/><stop offset=".563" stop-color="#376a8b"/><stop offset="1" stop-color="#9b3838"/></linearGradient><linearGradient xlink:href="#a" id="b" x1="5" y1="-1" x2="10" y2="17" gradientUnits="userSpaceOnUse"/></defs><path fill="url(#b)" d="M0 0h16v16H0z"/><g aria-label="Co" style="line-height:1.25;text-align:center" font-weight="700" font-size="9" font-family="Liberation Mono" letter-spacing="-.4" text-anchor="middle" fill="#fff" stroke-width=".265"><path d="M4.495 7.974q0 .988.308 1.525.308.536.918.536.712 0 1.055-1.073l1.2.229q-.585 1.863-2.268 1.863-1.235 0-1.885-.782-.646-.787-.646-2.298 0-3.028 2.496-3.028.818 0 1.367.43.554.431.813 1.28l-1.195.29q-.128-.467-.383-.721-.255-.26-.584-.26-1.196 0-1.196 2.009zM12.823 8.584q0 1.183-.598 1.829-.597.641-1.718.641-1.081 0-1.679-.641-.597-.646-.597-1.829 0-1.177.593-1.819.593-.641 1.71-.641 2.289 0 2.289 2.46zm-1.292 0q0-.843-.224-1.226-.224-.386-.756-.386-.545 0-.787.386-.237.387-.237 1.226 0 .849.242 1.24.246.386.725.386.545 0 .79-.382.247-.387.247-1.244z" style="-inkscape-font-specification:'Liberation Mono Bold';text-align:center"/></g></svg>